<?xml version="1.0" standalone="no"?>
<!DOCTYPE svg PUBLIC "-//W3C//DTD SVG 20010904//EN"
 "http://www.w3.org/TR/2001/REC-SVG-20010904/DTD/svg10.dtd">
<svg version="1.0" xmlns="http://www.w3.org/2000/svg"
 width="700.000000pt" height="700.000000pt" viewBox="0 0 700.000000 700.000000"
 preserveAspectRatio="xMidYMid meet">
<metadata>
Created by potrace 1.14, written by Peter Selinger 2001-2017
</metadata>
<g transform="translate(0.000000,700.000000) scale(0.100000,-0.100000)"
fill="#000000" stroke="none">
<path d="M1070 6993 c-117 -18 -246 -53 -320 -86 -25 -12 -50 -22 -56 -23 -18
-3 -167 -95 -224 -139 -186 -143 -335 -355 -409 -583 -59 -183 -56 -17 -56
-2647 0 -1331 4 -2445 8 -2476 15 -108 58 -245 111 -354 171 -349 484 -587
876 -667 53 -11 527 -13 2505 -13 2318 0 2444 1 2515 18 41 10 85 20 98 23 44
9 153 54 233 95 144 75 296 202 393 328 42 54 136 205 141 226 1 6 12 33 24
60 20 45 56 167 78 265 4 19 8 1122 10 2450 2 2583 4 2471 -47 2656 -33 122
-123 300 -200 398 -199 252 -465 409 -784 462 -66 10 -519 13 -2476 12 -1317
0 -2406 -3 -2420 -5z"/>
</g>
</svg>
